<svg id="check" xmlns="http://www.w3.org/2000/svg" viewBox="0 0 512 512">
<g transform="translate(0,512) scale(0.1,-0.1)" >
<path d="M2405 4804 c-309 -32 -556 -97 -793 -209 -676 -321 -1131 -920 -1268
-1670 -22 -120 -30 -478 -15 -616 48 -415 218 -823 480 -1152 299 -376 732
-654 1200 -772 214 -54 269 -60 551 -60 288 0 350 7 576 66 782 202 1412 843
1605 1633 95 390 88 779 -21 1159 -243 847 -969 1478 -1840 1602 -113 16 -396
27 -475 19z m330 -204 c492 -46 926 -249 1271 -594 610 -610 772 -1520 411
-2309 -166 -361 -471 -695 -823 -903 -565 -332 -1259 -372 -1859 -107 -512
227 -921 667 -1105 1190 -156 442 -156 925 0 1367 187 529 601 971 1119 1194
318 137 657 192 986 162z"/>
<path d="M3662 3693 c-12 -10 -402 -470 -867 -1023 -466 -553 -850 -1006 -854
-1008 -4 -1 -115 117 -246 262 -249 277 -273 298 -327 277 -56 -21 -83 -88
-55 -138 11 -19 442 -505 543 -610 35 -37 46 -43 82 -43 34 0 49 6 76 33 19
17 398 464 842 992 444 528 843 1002 886 1053 65 77 78 98 78 128 0 75 -102
125 -158 77z"/>
</g>
</svg>
