<svg id="error" xmlns="http://www.w3.org/2000/svg" viewBox="0 0 512 512">
<g transform="translate(0,512) scale(0.1,-0.1)">
<path d="M2320 4793 c-249 -27 -517 -106 -755 -223 -678 -334 -1143 -993
-1235 -1750 -14 -121 -12 -427 4 -550 75 -555 356 -1070 776 -1422 311 -261
663 -424 1090 -505 139 -26 582 -26 725 1 489 90 880 291 1215 626 433 432
660 978 660 1590 0 609 -225 1154 -655 1586 -355 358 -818 583 -1325 644 -79
9 -421 12 -500 3z m415 -193 c492 -46 926 -249 1271 -594 610 -610 772 -1520
411 -2309 -166 -361 -471 -695 -823 -903 -565 -332 -1259 -372 -1859 -107
-512 227 -921 667 -1105 1190 -156 442 -156 925 0 1367 187 529 601 971 1119
1194 318 137 657 192 986 162z"/>
<path d="M1351 3806 c-30 -17 -50 -53 -51 -91 0 -26 68 -97 562 -592 l563
-563 -563 -563 c-603 -604 -582 -579 -548 -646 8 -15 26 -32 41 -39 65 -30 44
-48 642 550 l563 563 563 -563 c604 -603 579 -582 646 -548 15 8 32 26 39 41
30 65 48 44 -550 642 l-563 563 563 563 c598 598 580 577 550 642 -7 15 -24
33 -39 41 -67 34 -42 55 -646 -548 l-563 -563 -563 563 c-605 605 -581 584
-646 548z"/>
</g>
</svg>
