<svg id="info" xmlns="http://www.w3.org/2000/svg" viewBox="0 0 512 512">
<g transform="translate(0,512) scale(0.1,-0.1)">
<path d="M2270 4784 c-649 -97 -1209 -497 -1511 -1079 -104 -199 -171 -406
-206 -628 -24 -152 -23 -472 0 -612 77 -449 290 -858 600 -1151 l85 -81 -64
-399 c-35 -219 -63 -412 -64 -427 0 -18 10 -39 29 -58 57 -57 60 -55 510 215
l406 245 90 -19 c273 -58 606 -54 880 10 562 131 1056 514 1329 1032 310 586
312 1287 8 1873 -307 589 -869 989 -1521 1079 -139 20 -439 20 -571 0z m455
-184 c720 -69 1331 -547 1565 -1226 115 -332 131 -710 46 -1045 -240 -946
-1189 -1545 -2137 -1348 -199 41 -148 58 -524 -170 -181 -110 -331 -198 -333
-197 -1 2 20 146 48 320 27 174 50 331 50 349 0 27 -16 46 -115 141 -194 184
-301 328 -410 551 -120 244 -173 457 -182 730 -8 250 14 413 88 641 124 384
368 707 714 946 338 234 776 347 1190 308z"/>
</g>
</svg>
